/* XPM */
static char *_32ed00b61d146ceab768fee1b5669cbQHBQdX9NRVWQu2xW[] = {
/* columns rows colors chars-per-pixel */
"64 64 204 2 ",
"   c #010001",
".  c #0B0405",
"X  c #04030B",
"o  c #0B060A",
"O  c #0C0A0B",
"+  c #120405",
"@  c #1B0506",
"#  c #120709",
"$  c #1E0709",
"%  c #130B0D",
"&  c #1A0C0D",
"*  c #0D0B14",
"=  c #080710",
"-  c #110711",
";  c #140C13",
":  c #1A0F12",
">  c #180E18",
",  c #151213",
"<  c #1B1315",
"1  c #1A1916",
"2  c #161219",
"3  c #1C151A",
"4  c #1C1A1B",
"5  c #250507",
"6  c #290507",
"7  c #230608",
"8  c #2D0709",
"9  c #230B0D",
"0  c #2D0A0C",
"q  c #330B0C",
"w  c #3C0C0E",
"e  c #230E10",
"r  c #2B0F12",
"t  c #380F10",
"y  c #340D10",
"u  c #231315",
"i  c #2B1113",
"p  c #211719",
"a  c #231B1C",
"s  c #2B1D1E",
"d  c #331315",
"f  c #3B1213",
"g  c #3B1719",
"h  c #3C1B1B",
"j  c #321518",
"k  c #12311C",
"l  c #28201F",
"z  c #24211E",
"x  c #1E1922",
"c  c #241D22",
"v  c #281E24",
"b  c #143F31",
"n  c #242223",
"m  c #2B2324",
"M  c #2D252A",
"N  c #2C2B2B",
"B  c #2A2427",
"V  c #322626",
"C  c #312927",
"Z  c #312728",
"A  c #332B2B",
"S  c #3B2D2D",
"D  c #382627",
"F  c #38302F",
"G  c #352D33",
"H  c #3D2F30",
"J  c #353132",
"K  c #3B3333",
"L  c #3C353A",
"P  c #3C3A3A",
"I  c #430C0E",
"U  c #4A0D0F",
"Y  c #4B0E10",
"T  c #400F11",
"R  c #550F11",
"E  c #441315",
"W  c #4C1214",
"Q  c #48181A",
"!  c #541113",
"~  c #5A1213",
"^  c #561B1B",
"/  c #5D1A1B",
"(  c #581719",
")  c #641315",
"_  c #6C1516",
"`  c #631719",
"'  c #611A1C",
"]  c #6B1B1C",
"[  c #6B1718",
"{  c #711617",
"}  c #721718",
"|  c #761E1F",
" . c #7A1B1C",
".. c #79151A",
"X. c #521E22",
"o. c #4A2121",
"O. c #58292B",
"+. c #413333",
"@. c #423638",
"#. c #433A3B",
"$. c #4A3C3B",
"%. c #533535",
"&. c #652627",
"*. c #772829",
"=. c #743334",
"-. c #134434",
";. c #264C31",
":. c #433B42",
">. c #493F41",
",. c #493F48",
"<. c #434343",
"1. c #4B4243",
"2. c #4B4149",
"3. c #514647",
"4. c #51464D",
"5. c #534A4A",
"6. c #594E4D",
"7. c #534B52",
"8. c #594D56",
"9. c #5D5353",
"0. c #5D565B",
"q. c #654C49",
"w. c #645A5B",
"e. c #685658",
"r. c #655760",
"t. c #6D6262",
"y. c #6F6A6E",
"u. c #6D636D",
"i. c #706362",
"p. c #7A6B68",
"a. c #756D74",
"s. c #796F73",
"d. c #7E7373",
"f. c #79747C",
"g. c #831D1D",
"h. c #8E1D1D",
"j. c #862322",
"k. c #8A2323",
"l. c #8C2C2B",
"z. c #942424",
"x. c #992B2A",
"c. c #973433",
"v. c #A32B2A",
"b. c #AB3A39",
"n. c #B63433",
"m. c #C33F3E",
"M. c #8E4E4E",
"N. c #9B4746",
"B. c #AB4544",
"V. c #B75352",
"C. c #B74645",
"Z. c #8A736D",
"A. c #847676",
"S. c #897C7C",
"D. c #897671",
"F. c #937473",
"G. c #AB6362",
"H. c #C34140",
"J. c #D35E5D",
"K. c #C26C6A",
"L. c #CB726F",
"P. c #D8716E",
"I. c #D27F7C",
"U. c #D76C6A",
"Y. c #92807A",
"T. c #7E7880",
"R. c #8C7E81",
"E. c #857F83",
"W. c #8E878B",
"Q. c #968C8C",
"!. c #958C93",
"~. c #9A919B",
"^. c #BE8180",
"/. c #A39597",
"(. c #AFA29B",
"). c #BEAB9D",
"_. c #B2A9AF",
"`. c #A9A9A9",
"'. c #CE8382",
"]. c #DA9A98",
"[. c #D68887",
"{. c #D2A19F",
"}. c #EBA09E",
"|. c #DDADAA",
" X c #CCA4A3",
".X c #ECBAB9",
"XX c #F0B6B5",
"oX c #E1A7A5",
"OX c #C4BDC4",
"+X c #CCC6CB",
"@X c #D4CDD3",
"#X c #DAD4D9",
"$X c #DED9DF",
"%X c #D5D0D5",
"&X c #EFCCCB",
"*X c #F0CBCB",
"=X c #F9DFDE",
"-X c #F2D9D8",
";X c #E4DEE2",
":X c #EBE4E9",
">X c #FAE7E7",
",X c #FCF0EE",
"<X c #FDF4F4",
"1X c #FEF9F9",
/* pixels */
"                                                                                          O                       , J           ",
"                                                      O L E.W.y.0.B                                               O B           ",
"        1                               ,           2 ~.;X#X1XOX#X%Xy..                                           , .           ",
"              ,                         ,           c L !.@X:X$X$X+X2.2             <.O                                     1   ",
"              4                               4 O O M L u.+X:X;X:X~.B 2             , . J 4                                     ",
"                                      .       .   O v :.7._.#X#X@Xu.c 2 .               , O                                     ",
"                  J .               N n           - v 0.a.,.!.@X#XT.n 2 O                       n                 J O           ",
"              n                                   c v L !.2.f.a.f.W.:.3 O                                                       ",
"                                                O ; ; L ; :.* * * * x c ;   J                                                   ",
"          . ,                                   O X 3 :.; w.; * X X X 2 ,                                                       ",
"          . O                         1       . o X G a.s.4.x G 3 = X X ,             .           4                             ",
"                                              O X X n P w.D A K G 3 X X * o         . ,           B                   O         ",
", O           N . O                           O X X < 2 G O 4 L C a o X . ;                                           1 O       ",
"                1 N                           * X X K #.2 * 2 L 1.A .   X ; .                                                   ",
"                                            . . X X B K < : : 3 5.O X X X o <           .                                       ",
"                                          B n O X X   a .   . .       X X X 1 O         ,                                       ",
"                                              4 X X X 3 O             X X   . .                                                 ",
"                                                X .   a s o .                                                                   ",
"                                                O % < 3.Q.1.u # n 1.< o O - c n O                                     , ,       ",
"                                            O < s m Z O 6.9.m 3 1.K a v M G :.2.:.c     . ,                                     ",
"                                        < A K a a a O 1 w.Z 3   , a B K K L 2.8.r.w.J . J `..         n .                       ",
"            n               1       , K #.L B a a O . . w.B 3 <   O < S #.2.4.7.7.8.4.L % O                                     ",
"    n                             , L #.K S B a O % . % e.K . 3 K C < < L 2.:.:.:.#.#.L J <.                                    ",
"  1 ,                             B K K S A a , p B   < p.5.. m w.C a a < L :.L G A G M M n                                     ",
"                                % m A S B 3 a a S B . 4 /.c . 7.1.C C C a v K G B v A c c c O       . O .                       ",
"                              O < l C m < m C s 5.A . K /.O O W.C C A F A a v M c 3 B 3 2 1 m       , , O                       ",
"                      .       . , m m < B A Z C 9.n o 9.R.c a /.C A S F S a , v c > B 2 ; 1 G                                   ",
"                  . J O       O 3 B < < B C B 1.1.n , d.w.M J Q.C C B a a , o 4 v 2 m 3 - 3 m 4                                 ",
"            ,                 O a l O , a a a #.K 4 K S.J 4 P 5.a < < % 3 %   % c 3 m v - 2 m K                                 ",
"                              , B , O < 1 1 a % Z % a a O . % , a , < % 3 O   . 1 2 m m 2 > v :.                                ",
"    ,                       . a m O . < 3 1 a a K C m 4 4 M , ; a , < O < .   . < > v B a > a J n                               ",
"        O                   O m < o   < 3 1 1 m 1.L Z -.b J . O < % < O < .   . ; ; a v A ; v 3 5.                              ",
"    , 2.n                   < m O .   , 3 3 3 B 1.L C C m K . O < % < O ,     % % % a p 1.- v < t.                              ",
"      .     . .           . a 1 o     % 3 3 3 M L S m ..' B . % ; % ; O %     % 3 < a 1 6.> 3 1 w.4                             ",
"        O <.O O     . P   % a %     . % 3 3 3 S m 3 a 3 B a   - ; % % O O     , s 3 a 1 #.B > a >.5.                            ",
"        4             ,   < 3 o     . % < 3 < L p.#.C B #.1   % % O O O O     O s 3 a 1 M @.; , m A.                            ",
"                          a % . O O . . ; 3 3 $.(.i.6.6.5.,   O O o o O .     . p % 1 1 3 1.; o 1 S.,                           ",
"                        . a O . % % .   % < 3 K F.q.$.$.@.3   O o o o o .     . $ < a 1 ; 5.- o > i.J                           ",
"                    O . % < . O % .     O % < & % % % % . @   O .   X o         % p Z 1 ; 5.- o ; 1.w.                          ",
"                    . . < % . a & . . D l 4 o O K $.$.s < % & 1 1 u s <         o v C a ; 3.; o O A R.                          ",
"                      O 3 . O a % . O %.;.k   < D.).Y.p.o : < k k X.u % .       . A #.a ; @.c o o 3 S.B                         ",
"                      , % . 2 a %   O s a <   < Z.).Z.q.O 3 % + . . & & %       o m m a ; M N o o 2 w.9.                        ",
"                      < . O a < O   o & < O   % A S S & . O % & O . + % < o     . p C a ; a L o . 2 >.d.            4 4         ",
"                    O ; % m m % .     o O o   < a < % % .   .         , L , .   . Z #.m : > #.o . 2 C A.1                       ",
"                    < % C C m ,       , a 4 ; a m & u < . . . > O     O #.n o .   B @.m < # #.o   > 3 t.1.                      ",
"                  o < ; #.l 3 o     . 2 , ; < a a % % 3 % . . > ;     - v m o .   m #.B 3 - #..   > > 5.t.                      ",
"                  % % a #.a :       O 2 O O < a % . + 3 % . o > ;     ; o   - o   a #.m 1 - J O   O > K p.,                     ",
"                  ; O Z S a %       1 4 O ; 3 l % . + & + # : > >     - O   O O . 4 $.m 1 % m ,   O > n 9.L                     ",
"                  % % D A a %     o c 1 . O 3 a % . . % . < , ; , o   O ;   . - . < K a a % a <   O > 1 3.5.                    ",
"  , .             % a H m u .     , 3 o o % % p . . . % % % . ; , O o * > o   o o 1 S a a - < 4   o > > #.w.                O   ",
"    1 .         . % s S Z u     . < # o - % % 3 . . + < % . . O , O O - > -     o a Z 4 a > , 4   o > ; N 5.a               O   ",
"    .         O . < V +.S 9 . . % & % : 3 % u 3 # + # 3 % .   O > - O > > > O . a 3.K % 4 > O n     > ; a #.A           1       ",
"  N         L Z < s e.e.e.j $ @ i 9 9 u u $ u u & s +.A +     o 2 ; O ; > > > m K 1.m O 4 > O c     > ; < J L           .       ",
"  P .       a +.s s %.%.O.X.E q E f f g j 9 9 0 9 9 D 9 + .   % 2 > O - > > m V : Z < . 1 2 o 4     > - ; B S %                 ",
"            . < & & e g Q &.*.' ] / / ^ E w w q q 5 5 6 5 . . $ < > - - > 1 A % ; s .   1 2 o ,     > ; - a B 4                 ",
"              . % 9 i Q O.M.{.^.N.l.k.*.[ ) R Y I q 6 6 7 $ $ $ < 3 % ; > s : o 1 , .   1 2 o O     - ; - < n l O               ",
"              % u e e t E =. X,X=X|.L.B.z.h...{ ~ U q 8 q w 0 9 i u & & 3 : o . u .     1 1 o       - ; - - 4 a O               ",
"              < p % . @ q W *.G.{.-X,X-X].K.b.z.g._ ~ I U I I E f d i 9 u : + & 0 + .   1 4 o       o ; - o 4 a ,               ",
"        . 1 . < 3 .   + 7 q Y ] k.B.'.-X1X<X&XI.b.z.g.[ ) ) ! ~ ! Q f d j u $ f 5 $ .   < 3 o       o ; - o < 3 <               ",
"            O 3 :     . @ $ q W / | x.c.K.oX>X1X=X].V.x.j.g. .{ [ ' ( E E d 9 t q @ .   < a %       o ; - o ; < < .             ",
"            ; 3 o     . . + $ 0 t W / ~  .z.b.L..X<X<X&X'.C.v.x.z.k.| ] / ^ f q 6 $ + . p s %       o ; - O % < < O             ",
"          . < <       o   . & $ 9 r q 8 R [ g.z.v.C.[.*X1X,X.XP.m.n.v.z.j.| ` W T q 7 @ i h 9 . .   . % % # % : ; %             ",
"          a < %       o   O 3 : : u # @ q W ~ [ } g.k.x.V.].=X1X>XXXP.H.n.v.k.| ` W w 6 g o.i @ + . . % % % # < % O             ",
"          % < .     o o   , a 1 3 <   . $ q E W Y R ~ ) } j.b.U.XX>X1X=X}.J.n.v.z. .) Y ^ &.E 6 $ @ + & & % % : % .             "
};
