/* XPM */
static char *a43511b22dae408e83e5a641c77d2378cQoj0iqXDEzWDFX0[] = {
/* columns rows colors chars-per-pixel */
"64 64 136 2 ",
"   c #000000",
".  c #080807",
"X  c #0B0B0B",
"o  c #141414",
"O  c #171817",
"+  c #181817",
"@  c #171818",
"#  c #1C1C1B",
"$  c #20201F",
"%  c #232323",
"&  c #292927",
"*  c #2C2C2B",
"=  c #2F302F",
"-  c #31312F",
";  c #343433",
":  c #383735",
">  c #393937",
",  c #3C3C3A",
"<  c #41403E",
"1  c #444442",
"2  c #484745",
"3  c #494947",
"4  c #4D4D4A",
"5  c #504F4C",
"6  c #52514E",
"7  c #545451",
"8  c #585754",
"9  c #595956",
"0  c #5D5D5A",
"q  c #615E5A",
"w  c #62615E",
"e  c #656562",
"r  c #686763",
"t  c #6A6966",
"y  c #6E6D6A",
"u  c #706F6B",
"i  c #72726E",
"p  c #757571",
"a  c #787772",
"s  c #7A7A76",
"d  c #7D7D7A",
"f  c #807F7B",
"g  c #82827D",
"h  c #89857B",
"j  c #858581",
"k  c #888783",
"l  c #878885",
"z  c #8A8A85",
"x  c #8D8D89",
"c  c #908F8B",
"v  c #8F908D",
"b  c #92928E",
"n  c #959592",
"m  c #999997",
"M  c #999996",
"N  c #9A9996",
"B  c #9A9A97",
"V  c #999995",
"C  c #999995",
"Z  c #9B9B98",
"A  c #9B9C98",
"S  c #9C9C98",
"D  c #9F9E98",
"F  c #9F9E9A",
"G  c #9E9F9C",
"H  c #9E9E9A",
"J  c #A09F9C",
"K  c #9FA09D",
"L  c #A0A09D",
"P  c #A0A19F",
"I  c #A1A29E",
"U  c #A3A29E",
"Y  c #A1A19E",
"T  c #A2A2A0",
"R  c #A3A4A2",
"E  c #A4A4A0",
"W  c #A4A4A1",
"Q  c #A7A7A3",
"!  c #A5A5A2",
"~  c #A8A8A5",
"^  c #A9A9A6",
"/  c #A9AAA7",
"(  c #AAAAA7",
")  c #A9A9A6",
"_  c #ACACA8",
"`  c #ACACA9",
"'  c #ADAEAA",
"]  c #AEAEAC",
"[  c #AFAFAC",
"{  c #AEAFAD",
"}  c #ADADAA",
"|  c #B0AFAC",
" . c #AFB0AC",
".. c #B1B1AE",
"X. c #B1B1AF",
"o. c #B2B2AE",
"O. c #B3B3AF",
"+. c #B1B1AE",
"@. c #B3B4B2",
"#. c #B5B5B2",
"$. c #B6B6B3",
"%. c #B4B5B2",
"&. c #B9B9B6",
"*. c #BBBBB8",
"=. c #BEBEBC",
"-. c #BFBFBC",
";. c #BCBDBA",
":. c #BFC0BE",
">. c #C1C1BE",
",. c #C1C1BF",
"<. c #C1C1BE",
"1. c #C3C3C2",
"2. c #C3C4C1",
"3. c #C5C5C3",
"4. c #C5C6C3",
"5. c #C6C7C4",
"6. c #C6C7C5",
"7. c #C4C5C3",
"8. c #C7C8C5",
"9. c #C7C8C6",
"0. c #C7C8C5",
"q. c #C8C9C7",
"w. c #C8C9C7",
"e. c #CACAC8",
"r. c #CBCCCA",
"t. c #CCCDCB",
"y. c #CCCDCB",
"u. c #D0D1CF",
"i. c #D3D3D1",
"p. c #D5D6D4",
"a. c #D3D4D2",
"s. c #D7D8D6",
"d. c #DCDDDB",
"f. c #DFE0DE",
"g. c #E0E1E0",
"h. c #E1E2E0",
/* pixels */
"                                                                                          X                       o ;           ",
"                                                                                                                  X %           ",
"        @                               o                                                                         o .           ",
"              o                         o             %                             1 X                                     @   ",
"              #                               # X     X                             o . ; #                                     ",
"                                      .       .                                         o X                                     ",
"                  ; .               * %                                                         %                 : X           ",
"              %                                                                                                                 ",
"                                                                            ;                                                   ",
"          . o                                                                                                                   ",
"          . X                         @                                               .           #                             ",
"                                                                                    . o           %                   X         ",
"o X           * . X                                                     X                                             @ X       ",
"                @ *                                                     # X                                                     ",
"                                                                      .                 .                                       ",
"                                        . % %                         o                 o                                       ",
"                                                                                                                                ",
"                                      % .       . % X                                                                           ",
"                    .       X o * > 4 0 r w 7 3 0 p N U l 7 & # @ X   . @ # 3 % .                                     o o       ",
"                    7 & 3 9 y w 7 8 7 r 5 4 0 7 7 y x G Z Z p t b A y N U n O.O.U o % ; @ o                                     ",
"            . X % > y k p r 7 t t 0 7 0 0 y x g b z z S ~ Q p d ~ 8.t.e.i.q.h.N 2.[ 8 , , s .         % .                       ",
"          o 0 y i p i d 6 w w 0 6 7 4 9 w k x r p r 4 y b S ~ w ' Q 5.3.-.>.5.[ T b e 1 , 3                                     ",
"    %   * w d n g b k r w r 7 0 t y p 6 1 p b U g 4 % & > 6 i y s S O.-.>.>.8.s.p.N 7 w 7 0 .                                   ",
"  @ o O d p i w t 7 e t y 0 z k S  .~ N d 7 6 i g f 3 - < t t 0 r g ' #.[ *.#.r.@.d 9 7 t y @                                   ",
"      % g g k k i , ; 4 i 7 c n Q O. .' N x 7 9 3 ; , 4 6 u d d z n U 3.t.2.~ j 8 1 R N U S >.*     . X .                       ",
"    o z N f g w 0 d n n g g S ~ ' U Q x s g h n g a 4 1 t s b b ' b V g S S k i > * 1 p Q >.i.*..   o o X                       ",
"    3 Z J x s k p n ~ Q ~ Q @.' Q s a g g #.*.U z n b d 3 k x b n n N d n O.c g y 3 e Z :.$.;.S r : .                           ",
"    w g z Q i 0 z S N N G ' x b d p k d N -.&.g z k x S r 1 y n d j b x d x N Q @.t.5.:.a.a.s.q.k d %                           ",
"    9 g g z s 7 4 g x a n z d b z p z ' >.Q x d d d V N v x 6 3 d z p s x p r g n O.f.d.2.u.h.d.&.8.7                           ",
"    % 6 3 t a u > s n p d g x k p g &.Q ;.@.g s r q * % % y k 7 > 4 0 s p z p u p l ' d.e.k t.t.U ;.p.0 .                       ",
"    @ 1 - 1 i i 9 2 d x V k z g k ~ >.5.-.N k 6 5 5 * & * > p n b 5 ; , d t s x d j U U T k , k p 3 w @.s @                     ",
"    . - * , y r 4 0 c b d d f j O.q.3.3.~ k S d t w 9 2 3 1 l S b r > & 4 a g p x T n Q Q J ; 1 &.V ~ >.g y                     ",
"    o 2 # > 1 w b U n a g w k ~ 2.r.5.3.g b G p i y g Q x n d p d g 0 1 ; 6 r ~ z g 9 6 r k 9 a q.d.d.i.t.3.l X                 ",
"      . . % 1 y n b a p u 4 4 w Q 3.2.Q z S ' b g z S O.Z V k c N n d r 1 % < t G U r p s y d ` $.-.q.t = < n A X               ",
"        X & - * > 7 w w t 4 2 r N T T d d j k d d b z d g z N t N >.O.c s 1 < r t s ~ z n b b &.z Q #.` z e T q.Q +             ",
"        #   # % * 1 r 0 w i t a z S #.Q g n a a d | c k x z s w , s ~ w f 0 1 & < 7 0 k S Q x ~ s 2 s N ~ 3.a.a.-.R o           ",
"                o > t r 8 w 0 y d p , 0 r 7 p w r w y y 9 w 5 : : > k &.#.Q U l * o : 3 j U 9 # $ * ; 4 i b K ~ 5.8.' %         ",
"                  X 9 r r 3 7 3 # 1 X X 6 1 > 2 e r b ' &.' , % $ # s O.#.;.#.U &.x % $ 4 1 % * X & % % 4 w y z b 3.>.Q o       ",
"                    # 4 0 3 3 # , X > # & 7 ; 1 - > 1 s ~ n z p i x 2.>.;.#.S Q Q S ;.T s 3 6 >     # - * % , 1 w j S N Q &     ",
"                    . o 7 4 , @ - & o ; % y 1 ; > ; 4 , , 0 g d g V ~ O.[ ~ 4 # & t N G S z r %       . * , @ * < > 0 y n Q X   ",
"                        X 1 7 8 * o % & 2 > 1 @ o % > 1 % & , < 1 1 d Q Z x 6 , ; 7 N ~ d b x p 9 #       X * % > > * 7 N a X   ",
"                          @ 6 7 9 4 % ; * + 4       . o % - 1 , , 4 2 7 r p c k x ~ >.5.3.Q k g s w - .       . & 3 , : 7 y .   ",
"                            X 1 7 0 6 , # % @               . : ; % : 1 3 : 3 w p b n n Q O.#.U x d 0 7 & .       . : * %       ",
"                                % % ; , < %                       . o # ; * : 2 3 6 9 w z b N U U U y y r 4 X         .         ",
"                                % @                                       X o % < 7 : 2 3 9 0 y s g z 0 i N 0                   ",
"                          X                                                     X o & & ; 3 7 7 r y t i s r 7 X                 ",
"                              @                 > o                             7 .     X @ & * , < 9 t < e 3                   ",
"                              .                 : o                                           . o $ & 1 * @                     ",
"                                                                            .                         . .                       ",
"  o .                                                               #       o                                               X   ",
"    @ .                                                                                                                     X   ",
"    .       . X                       X                                                                                 @       ",
"  &         . X           o           o                                                                                 .       ",
"  , .                                                                                                                           ",
"                                                                                                                                ",
"                                                                                          @ .                                   ",
"                                                      # o                                                                       ",
"                                                                                                                                ",
"        . @                           @                                                                                         ",
"                    X                                                                                                           ",
"                    X           . &                                                                                             ",
"                              %   X                                                                                             ",
"          & * .                                 % X                                                                             ",
"                                                x 1 . o                                                                         "
};
