/* XPM */
static char *_f8e353717be47d4b6180225b7c4e566ZVUn4X6Ykdj9fMng[] = {
/* columns rows colors chars-per-pixel */
"64 64 67 1 ",
"  c black",
". c #0C0C0C",
"X c #020202",
"o c #010101",
"O c #151515",
"+ c gray20",
"@ c gray6",
"# c #252525",
"$ c #191919",
"% c #131313",
"& c #040404",
"* c gray7",
"= c #202020",
"- c #414141",
"; c #0B0B0B",
": c #1B1B1B",
"> c gray12",
", c gray1",
"< c #1D1D1D",
"1 c gray4",
"2 c gray2",
"3 c #323232",
"4 c #101010",
"5 c gray3",
"6 c gray19",
"7 c #060606",
"8 c #2C2C2C",
"9 c gray13",
"0 c #222222",
"q c gray21",
"w c gray5",
"e c #070707",
"r c #1E1E1E",
"t c gray14",
"y c gray8",
"u c #090909",
"i c gray10",
"p c #2D2D2D",
"a c gray15",
"s c #161616",
"d c #111111",
"f c #353535",
"g c #A9A9A9",
"h c gray24",
"j c #0E0E0E",
"k c gray28",
"l c gray17",
"z c #313131",
"x c gray18",
"c c #5D5D5D",
"v c #232323",
"b c gray26",
"n c gray22",
"m c #585858",
"M c gray44",
"N c DimGray",
"B c #2A2A2A",
"V c #393939",
"C c #505050",
"Z c #373737",
"A c gray9",
"S c #181818",
"D c gray16",
"F c #3C3C3C",
"G c #272727",
"H c gray56",
"J c gray25",
/* pixels */
"                                             .X         oO+o    ",
"   oX                                        o          o@#     ",
"   o$X              %o    oo             ooo            oO&  oX ",
"   oX  *X           %     X=             o-;X           oXX  o: ",
"       >,          o  o<1 X;             o*23<               oo ",
"                 o,&  o2,                   45 oX       o,X     ",
"       oX67      X89                           X0       Xqw     ",
"       9XXo      ooo                 o,         o       oXo     ",
"      o,X                            o6                         ",
"     e*o           o                  o    o     o              ",
"     21o          o:                      X2     ro             ",
"       oX                                 eO     to        5,   ",
"y1     8eu                          5,     o     o         i1   ",
",o     oip                          >1                     o    ",
"         X          oooo           7o       eo                  ",
"                    &at,           %X       so                  ",
"                    ooXo           o        o                   ",
"                                                           oo   ",
"                                                           ds   ",
"                         o                  7%o   oXo           ",
"      Xo               o7;Xe,               fg2   X9e           ",
"  ,X  0X     X$        o,e,h,               7jX    oo           ",
" X9o  X      o,       &4  Xoo               1ko                 ",
" :4                o  o,o                   ,&X                 ",
"                  o4    te  o                     &;2           ",
"               ..X17   ogloo*                     %O5           ",
"        ooX2X  ooow7    7o o%                     oo            ",
"      o o2z;o      o        o           .io                     ",
"      Oo oo                             xcX                     ",
" oo   Xo                                o                       ",
" oyX                                                            ",
"  ,,u                                                           ",
"  yk0                 oe       oo                               ",
"  X7 o77  oo  o       X<       vX                               ",
"    jbu;  7nXu$                oo       o                       ",
"   ,>oo   Xyo                           .&                      ",
"   oo     o                             lw                      ",
"                                        oo                      ",
"          ue                     o         oo                   ",
"          2&                    2@        Xm%o                  ",
"                               o          o;     o         o    ",
"             .,                pX       2&X      oo       XXo   ",
"             X& oo             @o       MNX      Bo       rrX   ",
"                ry                      5eo o    X        XXo   ",
"            oo  ti                          @j                  ",
"            ,w Xoo      oo              &o  o                   ",
"            oX :o       Vso             C2                      ",
"               &o      oZA              Xo                      ",
"                                  o   &                         ",
" s&                              oro o%                      X1 ",
" o:&                              X   o                      o@ ",
" o&o  &u    oo     u                                       XSoo ",
" D,   21    ,%    oA                                       ,7X  ",
" F&         Xo                                                  ",
" o                                           oo                 ",
"                           oo                $e                 ",
"                           <A                oo                 ",
"     o             o       oX                                   ",
"    2So   o       oS                                            ",
"     o    uo     ooX                                            ",
"          @    ,&DXo                                            ",
"     XXo       GX5X                                             ",
"    oBxe       o        a.oo                                    ",
"                       oHJ&A                                    "
};
