/* XPM */
static char *ea9ea32553d749d49ac9d0e1449deb3ernJQ7ty6pC60d0QT[] = {
/* columns rows colors chars-per-pixel */
"64 64 229 2 ",
"   c #000000",
".  c #030B05",
"X  c #0C0B07",
"o  c #0B0B0A",
"O  c #090605",
"+  c #061409",
"@  c #071A0B",
"#  c #091D0C",
"$  c #071209",
"%  c #18140D",
"&  c #141413",
"*  c #1B1B15",
"=  c #1B1B1B",
"-  c #0E1A11",
";  c #25150E",
":  c #241A12",
">  c #2D1A13",
",  c #261913",
"<  c #331D15",
"1  c #0A210E",
"2  c #0D2B12",
"3  c #0C2610",
"4  c #0E3014",
"5  c #103516",
"6  c #133B18",
"7  c #123817",
"8  c #132917",
"9  c #24231E",
"0  c #2A2717",
"q  c #3B2316",
"w  c #322E16",
"e  c #342616",
"r  c #353119",
"t  c #3A3519",
"y  c #3B3819",
"u  c #1D3220",
"i  c #232323",
"p  c #2C2B24",
"a  c #2C2C2C",
"s  c #282621",
"d  c #373729",
"f  c #333433",
"g  c #3C3C3B",
"h  c #313125",
"j  c #442E17",
"k  c #443A1C",
"l  c #44392C",
"z  c #473E31",
"x  c #16431C",
"c  c #19471E",
"v  c #39411F",
"b  c #1B4F21",
"n  c #1E5323",
"m  c #3B4825",
"M  c #215B26",
"N  c #235F28",
"B  c #3E4E2E",
"V  c #26642A",
"C  c #2A692E",
"Z  c #2D7231",
"A  c #307634",
"S  c #347B39",
"D  c #2E6A33",
"F  c #45421D",
"G  c #4B441E",
"H  c #4C481F",
"J  c #484824",
"K  c #514C21",
"L  c #534D29",
"P  c #46562A",
"I  c #5A5529",
"U  c #444234",
"Y  c #4A4838",
"T  c #534E3A",
"R  c #495132",
"E  c #5A5737",
"W  c #625B2D",
"Q  c #5B662D",
"!  c #496935",
"~  c #546B35",
"^  c #587939",
"/  c #487035",
"(  c #6A632B",
")  c #736C2D",
"_  c #696838",
"`  c #797539",
"'  c #756D30",
"]  c #444443",
"[  c #4D4D4A",
"{  c #585746",
"}  c #565552",
"|  c #635C4B",
" . c #59664C",
".. c #676648",
"X. c #757549",
"o. c #656253",
"O. c #6C6553",
"+. c #6A6B54",
"@. c #736B57",
"#. c #7E7858",
"$. c #6D754A",
"%. c #797666",
"&. c #747674",
"*. c #666965",
"=. c #827D3C",
"-. c #857C34",
";. c #857C5D",
":. c #847D46",
">. c #847C67",
",. c #3A843D",
"<. c #58853E",
"1. c #4E863E",
"2. c #3D8940",
"3. c #418D43",
"4. c #4E8A40",
"5. c #578A43",
"6. c #479549",
"7. c #589748",
"8. c #529E52",
"9. c #5F9F54",
"0. c #4F9C51",
"q. c #63994B",
"w. c #639C57",
"e. c #75985B",
"r. c #6F884E",
"t. c #58A257",
"y. c #5AA04F",
"u. c #67A75A",
"i. c #77A759",
"p. c #75B65D",
"a. c #63AB63",
"s. c #6AAF6A",
"d. c #72B463",
"f. c #77B86A",
"g. c #78B872",
"h. c #70AD69",
"j. c #7EC177",
"k. c #8C843B",
"l. c #8A8335",
"z. c #9B933B",
"x. c #9C9337",
"c. c #948B38",
"v. c #A39B3D",
"b. c #958E45",
"n. c #9D9644",
"m. c #918A5F",
"M. c #8D8E51",
"N. c #A39C43",
"B. c #A29E5B",
"V. c #AAA248",
"C. c #A9A355",
"Z. c #BCB45A",
"A. c #B1AA54",
"S. c #89836A",
"D. c #889467",
"F. c #999669",
"G. c #878276",
"H. c #998E78",
"J. c #948B74",
"K. c #9A977A",
"L. c #938A6C",
"P. c #88A76A",
"I. c #87B96D",
"U. c #85B475",
"Y. c #98B57C",
"T. c #94AA6E",
"R. c #ACA665",
"E. c #B4B37B",
"W. c #B0AE71",
"Q. c #93A469",
"!. c #C4BC5E",
"~. c #C3BB65",
"^. c #87C27C",
"/. c #93C266",
"(. c #A3CA78",
"). c #CBC369",
"_. c #D6CE78",
"`. c #9A9A8A",
"'. c #9F9F9B",
"]. c #8A8A8A",
"[. c #A59A83",
"{. c #A89C84",
"}. c #A09E90",
"|. c #9EA381",
" X c #8ABA82",
".X c #A9A589",
"XX c #B1A58D",
"oX c #B5AA85",
"OX c #A6B685",
"+X c #B9B785",
"@X c #B6AA92",
"#X c #BAAE96",
"$X c #B0A791",
"%X c #BEB199",
"&X c #BBB895",
"*X c #A7A997",
"=X c #B8B7AA",
"-X c #A8A9A4",
";X c #C1B78C",
":X c #C2B59D",
">X c #C6BD9C",
",X c #C9BCA2",
"<X c #8CC588",
"1X c #98CA94",
"2X c #92C38B",
"3X c #A5CB9D",
"4X c #A4D29F",
"5X c #B5CB8F",
"6X c #A7D3A4",
"7X c #BCDEBB",
"8X c #B9DCB6",
"9X c #B5D1B0",
"0X c #CBC596",
"qX c #CEC58D",
"wX c #C9C2A6",
"eX c #D6C9AA",
"rX c #DCD1B4",
"tX c #C8CEAD",
"yX c #E3D8B9",
"uX c #C6E1BC",
"iX c #CAE3C8",
"pX c #D0E7CF",
"aX c #D5EBD4",
"sX c #E5F2E5",
"dX c #EBF5EB",
"fX c #E8F4E7",
"gX c #F4FAF4",
"hX c #FBFDFB",
"jX c #F0F7EF",
/* pixels */
"                                                                                          o                       & f           ",
"                                                                                                                  o i           ",
"        =                               &                                                                         & O           ",
"              &                         &             i                             ] o                                     =   ",
"              =                               = o     o                             & O f =                                     ",
"                                      O       O                                         & o                                     ",
"                  f O               a i                                                         i                 f o           ",
"              i                                                                                                                 ",
"                                                                            f                                                   ",
"          O &                                                                                                                   ",
"          O o                         =                                               O           =                             ",
"                                                                                    & i O         i                   o         ",
"& o           a O o                                                     O       o a [ } [ = o                         = o       ",
"                = a                                                     i = i f } `.'.-X'.&.= O                                 ",
"                                                                      O o ] ].G.`.&X&XwXwX`.f                                   ",
"                                        O i i                         & = } =X>XE.W.E.+XqX0X}.} =                               ",
"                                                          d E w       & [ G.0XW.C.B.R.Z.)._.0XtXf O                             ",
"                                                            % k ` w   o &.=XE.C.N.N.C.N.!.).~.0X&.o                             ",
"                    . . + + . .                               0 r :.M.R %.&XR.V.x.v.N.n.Z.!._.qX}.g                   & &       ",
"                  . 1 2 7 7 3 1 + . .                         X 0 0 K =.=.C.A.n.x.v.V.N.Z.)._._..X{ O                           ",
"                . 1 x M C C M c 7 3 @ $ .       O o   O         0 0 0 G k.C.V.n.c.z.z.n.V.Z.).).Z.~.B.X.T d X                   ",
"            i O + 7 V ,.3.3.3.A V b 6 3 # + . . O O   g         X F G L b.C.V.V.v.V.V.Z.~.)._.).n.k.( I I _ ..w                 ",
"    i         . @ x A 6.t.<Xs.8.3.S C n x 4 3 8 . . .             % K ( b.=.) l.l.x.-.z.v.V.Z.Z._ r : w w w r J %               ",
"  = &           @ 6 Z 6.a.sXgXiXg.t.6.,.Z N c 7 3 @ . .               * ` K F 0 t I I ) W G F ) I y F w X                       ",
"                $ 2 n A 0.g.6XaXjXpX2Xa.6.,.A V D x 2 # + . .           ` b.k.I k K K w L I ) =.w X X o O                       ",
"                . @ 7 n A 3.t.g.6XaXgXpX2Xa.6.2.s.S n x u 1 + . .       J =.l.' ( -.k.K ( l.V.b.%   & & o                       ",
"                  . @ 5 c N A 2.8.s.1XpXgXsX6Xs.8.3.S C C c 7 3 @ @ 9 { +.E ( ) -.l.k.( W ) ( X.{ f &                           ",
"                  O f - # 4 c M Z ,.6.a.<X7XfXfX7Xg.8.6.,.Z V n ! D.|..XK.l J Q ) ` -.' G G t @.eXeXwX&                         ",
"            &           . + 1 4 c M Z ,.6.a.<X7XfXdX7X Xt.6.,.w.U.Y.Y.Q.D.{ 0 J Q K F y y e q #.>XwXrXO.                        ",
"                            . $ # 2 x M C ,.6.t.g.9XdXhXpX<Xs.f.g.f.I.P.P.r.d r J F y 0 > q e ;.;XoXoXrX*                       ",
"    &                           . . @ 3 6 n C S 3.8.g.6XsXhXsX6Xj.f.f.p.p.i.P m m m m m v y r S.0XF.K.wXH.                      ",
"        o                           . . @ 3 7 b V A 3.0.s.1XpXgXsX8X<Xf.d.p./ / ! P B B m y d K.qXm.F.;X%Xp                     ",
"    & ] i                               . . @ 4 7 b C A 3.a.^.4XaXgXfX8X<Xg.7.4.1./ ! ! P J R W.5X#.m.;XeX$XO                   ",
"      O     O O                             O i + 1 7 n w.h.g.f.j.1XiXgXgXpX Xu.y.7.4.1./ / ~ /.Y...M.W.qXyX{ O                 ",
"        o ] o o     O g   o =                     . + h &XY.U.g.f.f.f.<X7XsXgXpX3Xf.u.y.7.4.1./.I.$.X.E.;X0XyXo.                ",
"        =             &                             . U &XOXOXP.U.u.9.f.g.<X8XfXgXaX4Xg.u.7.7.p.f.r.r.T.OX&XeXG.                ",
"                                                    9 %XwX.X|.5XP.r.^ I.u.d.u.g.6XsXhXdX9Xg.u.d.d.q.i.P.5XtXyX%.                ",
"                                                    G.wX,X&XL.oXF.{ R Y.e.q.5.7.w.h.1XiXgXgXiX3X^.u.f./.(.OX5X%.                ",
"                    o O                             >.rXwX0XF.J.+.X.{ OXD.^ ^ ^ <.q.u.d.2XiXdXgXpX4X^.(.5X5XOXS.$               ",
"                    O O                           O S.S.O.F.S.>.+.O.| .XK.R ~ K Q ^ 5.7.y.u.U.8XgXhXfXuX5XT.M.Q.T               ",
"                                                  [ b.c.k.E S.>.;.z O..X{.Y R k H L Q ^ <.5.7.d.1X7XsXgX9X.X_ n.R.9             ",
"                          o                     * b.v.z.c.=.L.J.L.d O.XX$XT R e j G K I Q ^ 5.u.f.U. X3X*XH.U =.b.E             ",
"                            O                   J k.N.) K ( S.[.oX{ O.XX#X| Y , q j k G K K ~ i.e.U.5.i.e.r.J ` ( _ f =         ",
"                                = &           X ) I R.J k -.;.{.XXY %.{.XX@.l 0 > q q j j r R D.S.K. .e.m _ m._ J Y &           ",
"                                i =           % ( w m.r 0 ( :.{.O.U >.[.XX>.U 0 > < q q < : U D.>.K.+.r.9 9 Y { U               ",
"                          o                     _ 0 z d 9 0 L {.: o.J.{.@XS.T h > < q q > % U K.>.K.S.o.9 9 B [ 9               ",
"                              =                 { * & ] f * U %.* >.[.XX@XH.| l > < < < > % Y .X>.K.{.U p * Y f O               ",
"                              O                 f &   f } a o.& Y S.@X:X#X[.O.z > < < < > : | %XS.[.XXp f p o.o                 ",
"                                                      p *.&.g   @.[.:X,X:XXXo.z > > < > ; , @.:XL.[.@XY O p U                   ",
"  & O                                                   O       @X:X:X,X,X#X| z > > > > ; , >.:XJ.{.#X%.                    o   ",
"    = O                                                       : ,X:X#X%X#X%X{ z > > ; > > ; J.,XH.XX%X@XO                   o   ",
"    O       . o                       o                       U eX,X%X%X@X%X{ l > > % ; > > K.:XH.@X@X:Xs               =       ",
"  a         O o           &           &                       o.eX:X:X:X#X#X| h > > % ; < > .X%XH.@X#X:XY               O       ",
"  g O                                                         * p 9 9 9 9 9 % O O O     O O 9 9 = 9 9 9 &                       ",
"                                                                                                                                ",
"                                                                                          = O                                   ",
"                                                      = &                                                                       ",
"                                                                                                                                ",
"        O =                           =                                                                                         ",
"                    o                                                                                                           ",
"                    o           O a                                                                                             ",
"                              i   o                                                                                             ",
"          a a O                                 i o                                                                             ",
"                                                ].] O &                                                                         "
};
