/* XPM */
static char *bfb9a19fb043440fd50ce519d833acceIFylmMGjoOuV1JnA[] = {
/* columns rows colors chars-per-pixel */
"64 64 226 2 ",
"   c #010101",
".  c #080707",
"X  c #060708",
"o  c #080708",
"O  c #07080A",
"+  c #0A0B0C",
"@  c #090807",
"#  c #110F0E",
"$  c #11100F",
"%  c #0D0E11",
"&  c #0E1113",
"*  c #0F141A",
"=  c #131314",
"-  c #191616",
";  c #1A1817",
":  c #141619",
">  c #16191C",
",  c #1C1B1C",
"<  c #191719",
"1  c #100F11",
"2  c #221E1E",
"3  c #291F1E",
"4  c #25211F",
"5  c #1C1D21",
"6  c #151D24",
"7  c #211F25",
"8  c #1D2126",
"9  c #1D232B",
"0  c #172028",
"q  c #1B2630",
"w  c #242223",
"e  c #2B2525",
"r  c #23262B",
"t  c #2E262A",
"y  c #25292C",
"u  c #2C2A2C",
"i  c #2E2826",
"p  c #322C2B",
"a  c #3A2B2B",
"s  c #342626",
"d  c #37312E",
"f  c #242B33",
"g  c #2B2D33",
"h  c #262F39",
"j  c #332E33",
"k  c #3B2E32",
"l  c #2D3135",
"z  c #2C323A",
"x  c #273038",
"c  c #343134",
"v  c #3B3334",
"b  c #33353B",
"n  c #3A353A",
"m  c #36393D",
"M  c #3C3A3E",
"N  c #3E3835",
"B  c #47342F",
"V  c #443335",
"C  c #44363B",
"Z  c #433B3C",
"A  c #4C3C3C",
"S  c #483734",
"D  c #533B38",
"F  c #402F31",
"G  c #633E39",
"H  c #4D423B",
"J  c #47413C",
"K  c #54443E",
"L  c #5C433F",
"P  c #66443F",
"I  c #70453C",
"U  c #3C3B43",
"Y  c #353B41",
"T  c #433C43",
"R  c #493D43",
"E  c #513F42",
"W  c #3E4149",
"Q  c #4D4443",
"!  c #45444B",
"~  c #4A444B",
"^  c #494648",
"/  c #534445",
"(  c #5A4242",
")  c #53454C",
"_  c #514A4D",
"`  c #5D4D4B",
"'  c #594A46",
"]  c #5B5048",
"[  c #4D4B53",
"{  c #464650",
"}  c #534B54",
"|  c #5C4C53",
" . c #594F59",
".. c #5C5354",
"X. c #5C545C",
"o. c #58555E",
"O. c #634B4C",
"+. c #644845",
"@. c #714A4B",
"#. c #67554D",
"$. c #77544B",
"%. c #664C53",
"&. c #655453",
"*. c #6B5352",
"=. c #6B5B53",
"-. c #63555C",
";. c #645B5D",
":. c #6B5B5D",
">. c #755958",
",. c #6D615E",
"<. c #72635B",
"1. c #7B655A",
"2. c #796558",
"3. c #5D5A63",
"4. c #595964",
"5. c #635962",
"6. c #6B5C63",
"7. c #6B5F6A",
"8. c #675864",
"9. c #735E6A",
"0. c #715D65",
"q. c #6D636E",
"w. c #6D6266",
"e. c #756A62",
"r. c #73626C",
"t. c #7A656B",
"y. c #7A6868",
"u. c #6C6571",
"i. c #726572",
"p. c #756A75",
"a. c #7C6B74",
"s. c #796A77",
"d. c #7C717C",
"f. c #7E7266",
"g. c #845D57",
"h. c #836B5C",
"j. c #8C6C5D",
"k. c #856457",
"l. c #966B56",
"z. c #99745D",
"x. c #A77A5D",
"c. c #A46E59",
"v. c #846D63",
"b. c #8C6C63",
"n. c #876A69",
"m. c #8E736C",
"M. c #887568",
"N. c #937562",
"B. c #937966",
"V. c #947B6C",
"C. c #997768",
"Z. c #826B74",
"A. c #836B7A",
"S. c #877478",
"D. c #957E72",
"F. c #9B7E73",
"G. c #947A7D",
"H. c #9A7A7B",
"J. c #986C65",
"K. c #A37A67",
"L. c #AA7D74",
"P. c #9C826D",
"I. c #9B8473",
"U. c #988378",
"Y. c #8F807E",
"T. c #A5856C",
"R. c #AA876A",
"E. c #B38B6B",
"W. c #A58B73",
"Q. c #A48D7B",
"!. c #A78979",
"~. c #B58F7A",
"^. c #AC937C",
"/. c #AB9279",
"(. c #B2957C",
"). c #B69679",
"_. c #C49B78",
"`. c #C7A27F",
"'. c #7E7482",
"]. c #8C7684",
"[. c #867987",
"{. c #977D86",
"}. c #A27F84",
"|. c #8C8187",
" X c #9C8583",
".X c #998687",
"XX c #9B8B92",
"oX c #A48C8C",
"OX c #A68787",
"+X c #B58E87",
"@X c #AD9585",
"#X c #B39483",
"$X c #B39B84",
"%X c #BB9D82",
"&X c #B4988B",
"*X c #A48994",
"=X c #B99998",
"-X c #A79396",
";X c #BCA184",
":X c #BCA38A",
">X c #B3A18C",
",X c #BEA892",
"<X c #B89CA8",
"1X c #BAA5AE",
"2X c #C59D86",
"3X c #C2A285",
"4X c #C3A689",
"5X c #C5A98D",
"6X c #CBA887",
"7X c #D2AC8D",
"8X c #C8AC95",
"9X c #CEB193",
"0X c #D6B698",
"qX c #D6B28D",
"wX c #D9BBA0",
"eX c #C5AAAC",
"rX c #E0C09F",
"tX c #DFC5AB",
"yX c #E0C7AD",
"uX c #E3CAB2",
"iX c #E5D0BC",
"pX c #CAB3C1",
"aX c #EBDAC7",
"sX c #EFDFD0",
"dX c #F1E4D7",
"fX c #FCF8F4",
/* pixels */
"                                                                                                                                ",
"                                                                                                                                ",
"                                                                                                                                ",
"                                                                                                              X X               ",
"                                                                                                          X o o + X             ",
"                                                                                                        X X O + O o             ",
"                                                                                                          X + % % % + X         ",
"                                                                                                          X + % & & % + X       ",
"                                                                                                          X O % : > * & +       ",
"                                                                                                          X O % > 6 6 * % +     ",
"                                            X X X o O O O O O o X X X                                     X O % > 8 9 6 * % o   ",
"                                        X X + % = = = = : : = = % + + O o X                                 O % > 8 f 9 6 & O X ",
"                                    X O + = = , 8 r w 2 r r w 5 5 , = = & + O X                             o + > 8 f 9 0 : % o ",
"                                X O # = 5 r y g l b m j M U U m b j r 5 , : & + o X                         X + > r f h q 6 * + ",
"                              X + = , r l Y W T ! [ } [ } 4.o.4.[ ! W c u r 8 : = O X                       X + : 9 f z f 0 : + ",
"                            X + : 8 g b U [ [ } X.u.s.i.q.d.[.p...3.o.~ ~ ! c u 2 = + X                     X + > r z h f 9 : O ",
"                          X + : r b W ~  .].| S | p.[.a.].[.{.S.*.y.a.y.a.w.~ T c r < + X                   X + , r x g f 9 > + ",
"                        X + > f b { 4.r.].1X{.( E ' E S %.+.>.@.$.*.y.H.{.S.:...^ n u = O X                 X O = 8 g g h 9 : + ",
"                      X + : r l ! X.6.].{.*XZ.V a a a B S D D P G @.@.n.n.S.Z.Z.;.^ v r = O                 X O = w x x h 9 > + ",
"                      O : 8 z ! X.9.r.a.9.A v a s s s v Z / ` +.$.>.@.I $.k.n.G.S...^ c w = .               X O = w z x x 9 > % ",
"                    X + > f { u.6.%.R R C v v j e w e s v A K +.=.2.>.$.v.b.b.oX-Xy...Q t < + X             X O = w x z h r : + ",
"                    O = f W 4.p. . .T T v t e 3 w e i a Z Q ` #.2.h.k.k.N.C.C.=X<XY.,.6.Z w = O X           X + - r x l g 9 > + ",
"                  X % 5 M [ | E a v j t w 2 4 e p d N S H ' =.2.k.k.B.B.j.N.K.+XeX@X1.,._ p , + X           X + = r z l g 8 : + ",
"                X + > g -.[.) V v j t 2 2 e i v J Q K ' #.1.v.V.B.z.C.z.l.l.z.+XeX&Xb.e.;.N 4 # @           . + < y b c g 8 : + ",
"                o & r T d.A.8.~ U u w e t p N Q ..#.#.<.1.B.N.P.T.W.T.R.R.x.c.2X8XL.B.e.&.Q t - O X       X O = , u Y c g 8 : + ",
"              X + : U } 7.a.| T u r r t p C ` y.e.<.1.h.V.W.W.(.(.).%X$X(.~.x.~.~.z.j.1.=.Q j , + X       X + = w l m n g 5 & O ",
"              o = y ~ 3.i.i.T t 2 , w i d H ` <.f.h.j.P.W.(.).;X5X5X8X4X;X).E.).(.!.N.v.<./ v 5 + X       X + - y m M m f > % O ",
"            X + , b } q.9.) e 2 , , w d S *.#.<.h.b.P.W.~.;X4X`.6X6X9X8X3X).E.(.(.Q.V.2.=.H d w # X     X O $ , u U T m y : + X ",
"            X = r m X.| C v e 2 < , e N H ,.e.v.M.B.T.E.)._.`.qX0XqXqX9X4X2X).&X&XQ.j.h.=.H d w = O     X + = w n ! M b f = O X ",
"          X O 5 b C a.| a u w , < w p J ] <.1.M.P.z.x.E._.6X0XtXiXuX0X7X`.4X2X$X&XQ.F.h.#.D v e = O X X O $ ; u ! ~ n l 8 & O   ",
"          X & r v s %.) c u , - ; w a Q #.1.M.V.N.T.E.%X_.7XrXuXsXaXyX0X6X3X%X^.@XQ.+X*X+.Q c w - O X X + = 2 v [ ~ b f > + X   ",
"        X O : g n v v Z c w = = ; e N K <.f.V.B.W./.:X2X6XqXrXaXfXdXuX0X7X3X(./.Q.Q.OX}.&.K p w = O X O = , e Z 7.q.j 8 = O X   ",
"        X % 5 b Z F s M u 5 = $ , p S K >.M.U.W.^.~.).4X7X0XyXaXdXaXtX0X2X).R.T.N.F.m.n.O.A p , = O O + = 2 c ~ s.d.j , & O X   ",
"        O : f U ) V v M w ; $ # , p A L v.h.I.Q.@X(.).4X6X0XtXuXiXuX0X7X3X%X/.I.B.D.oX{.:.5.c , = + + = w u ^ } ) T r : + o X   ",
"      X + 5 g n V V v l , = + = 2 a B =. XOXF.^./.K.).2X`.6XwXwXwX0X7X3X:X#XW.I.V.OXOXH.&.) k < = + = , t v ~ } ! g 5 = O X     ",
"      X % 8 b Z C C c r = + + $ 2 v D *.-XOX!.@X#XR.).;X4X_.6X9X0X9X5X8X:X^.I.D.OXpXH.*.| Z t 7 = = , w p Z [ T n y > % O       ",
"      O & 9 U T Q v t , = O O # , d D P m.V.!.#X&XR./.:X:X4X4X4X5X4X:X,X>XQ.D.b.OXoX.Xt.5.v u w = , e u n ~ [ M b r = + X       ",
"      O : g ~ } ) n r = + . . + , p B #.$.V.!.!.#XR.(.$X$X%X:X:X:X$X$X@XQ.OXU.m.G.XX*X| R n u w , e p v ^ } [ n y 5 : + X       ",
"    X + 5 j ) -.a t , = O X X + - i H <.m.=X=X&X#XT./.$X$X^.$X$X@X^.Q.I.U. XoX-X<X<Xt.3.! n t e p p C | -.d.5.c r > & o         ",
"    X % y ~ 7.) p w : + X   X @ - i H #.1.H.=X+XK.C.T.Q.^.^.Q.Q.Q.I.I.M.m.m. XH.G.S.q.3.} c p p v v } r.t.6.} w , = + X         ",
"    X % g } 6.R t , = O X     . # 2 v ] <.U.OXL.l.K.z.C.P.Q.Q.Q.U.U. XoX X.XY.|.XXd.X._ Z k v ~ ~ X.6.A.q.{ l , = O X           ",
"    o < T 5.C e w < + X       X + - e J #.M.OXJ.g.F.F.j.k.b.D.I.U. X X.XXX|.S.n.].*./ / V Z [  .7.i.;.7.o.j , = + o             ",
"    O 7 } 8.k e 5 = O X         X # , p A ;..X.Xb.m.k.j.b.b.k.$.k.b.{.Z.{.y.t.t.6.' _ | 6.9.'.[.[.p.-.{ l 8 > % O               ",
"    + w p k e w < & O             O = 4 d H ,..X{.H.g.g.>.n.G.m.1.M..X|.|.[.S.0.O.%.' 0.t.[.[.|.].t.! b r > & O X               ",
"  X % p t p w , = + X             X O = w a Q w.y.>.y.$.*.>.+.P *.>.y.w.a.a.>.:.| 5.s.r.'.'.s.5.6.| U j , = O X                 ",
"  X < j w r , < = O X               X + = 2 p ^ ..:.i.:.w.:.( ( O.O.D L ( O.t.i.i.7.:.7.q.5.4.~ j j g r = + o                   ",
"  X , n w 2 5 : + X                   X O = , u p Z _ X.5.....5.-.6.&.O.6.6.7.u.q.X.~ 5.5.X.n t w , > = + O X                   ",
"  + 7 t , < > = O X                     X O # : , r u n ! ! ~ [ } _ X.| 5._ } X.u.[ ~ ! T c e , , = = % O o                     ",
"  % 7 7 - - = O X                         X o + = = , w u g M n m n M n Z n M U ! U j g j < = = + O O X                         ",
"X % 5 : = = % o X                             X O O + = = , 5 5 , w w w u u u y y 8 > = = % + O X X                             ",
"X % : : 1 + o X                                   X X o O + + % = = = = : > , : = & + + O o o X                                 ",
"o + & : + O X                                           X X X o O O o O + + + O o X X X                                         ",
"X + : % + X                                                                                                                     ",
"  O % O X X                                                                                                                     ",
"  X + X X                                                                                                                       ",
"      X                                                                                                                         ",
"                                                                                                                                ",
"                                                                                                                                ",
"                                                                                                                                ",
"                                                                                                                                ",
"                                                                                                                                ",
"                                                                                                                                ",
"                                                                                                                                ",
"                                                                                                                                "
};
